<?xml version="1.0" encoding="UTF-8"?>
<!-- Created with Grafika (https://www.grafika.cc/) -->
<svg xmlns="http://www.w3.org/2000/svg" xmlns:svg="http://www.w3.org/2000/svg" xmlns:xlink="http://www.w3.org/1999/xlink" width="5120" height="5120" viewBox="0 0 1091.22 1091.22" preserveAspectRatio="xMidYMid meet">
	<g transform="matrix(1, 0, 0, 1, 491.1214599609375, 800.2269287109375)">
		<rect x="-491.12" y="-800.23" width="1091.22" height="1091.22" rx="135" ry="135" style="fill:#E7E7E7;" />
		<g transform="matrix(1, 0, 0, 1, 54.489990234375, -513.1557006835938)">
			<path transform="matrix(5.333333492279053, 0, 0, 5.333333492279053, -64, -66.10765075683594)" d="M60.3,46.73 L-36.3,46.73 C-40.79,46.73 -44.43,43.09 -44.43,38.59 L-44.43,-14.59 C-44.43,-19.09 -40.79,-22.73 -36.3,-22.73 L60.3,-22.73 C62.46,-22.73 64.52,-21.87 66.05,-20.35 C67.58,-18.82 68.43,-16.75 68.43,-14.59 L68.43,38.58 C68.43,40.74 67.58,42.81 66.05,44.34 C64.53,45.87 62.46,46.73 60.3,46.73 L60.3,46.73 ZM-17.3,30.45 L-17.3,9.29 L-6.45,22.85 L4.4,9.29 L4.4,30.45 L15.25,30.45 L15.25,-6.44 L4.4,-6.44 L-6.45,7.12 L-17.3,-6.44 L-28.16,-6.44 L-28.16,30.46 L-17.3,30.45 ZM55.42,12 L44.56,12 L44.56,-6.45 L33.71,-6.45 L33.71,12 L22.85,12 L39.13,30.99 L55.42,12 Z" style="fill:#000000;" />
		</g>
		<g transform="matrix(1, 0, 0, 1, 54.48999786376953, -54.99163055419922)">
			<path transform="matrix(8, 0, 0, 8, -63.95209884643555, -64.25900268554688)" d="M-20.79,35.86 C-25.06,30.68 -20.52,24.5 -15.88,21.87 C-13.3,20.42 -10.08,19.41 -6.61,18.45 C-7.65,20.42 -8.78,22.33 -10.03,24.17 C-11.05,24.58 -12.04,25.05 -13,25.59 C-15.45,26.97 -18.72,29.38 -16.71,32.41 C-14.76,35.36 -11.6,32.12 -10.12,30.4 C-8.22,28.47 -6.08,25.41 -4.17,22.06 C-2.15,18.51 -0.32,14.51 1.43,10.28 C3.02,6.47 4.42,2.54 5.47,-1.12 L5.47,-1.12 C6.54,-4.78 7.26,-8.17 7.53,-11.03 C7.75,-13.4 7.64,-16.9 4.52,-16.44 C1.39,-15.98 1.43,-12.32 2.17,-9.46 Q2.5,-8.19 3,-6.82 Q2.65,-5.17 2.15,-3.35 Q1.73,-1.84 1.23,-0.25 C-0.11,-2.88 -1.18,-5.64 -1.94,-8.49 C-3.28,-13.63 -3.34,-20.8 3.58,-22.29 C10.5,-23.77 12.24,-15.92 11.78,-10.89 C11.4,-6.81 10.27,-1.82 8.55,3.33 C9.65,5.15 10.85,6.97 12.11,8.74 C13.45,10.61 15.2,12.53 16.65,14.19 C21.76,13.81 26.79,14.06 30.56,14.78 C35.75,15.76 40.44,19.01 37.69,25.22 C34.94,31.43 28.16,30.52 23.67,27.63 C19.91,25.2 16.62,22.13 13.94,18.55 L13.93,18.55 C11.09,14.29 8.48,9.87 6.12,5.33 C4.99,8.73 3.34,13.29 1.93,16.34 C3.73,15.92 5.62,15.58 7.49,15.29 C8.26,16.58 8.99,17.84 9.74,19.06 Q8.84,19.19 7.87,19.36 Q4.35,19.96 0.97,20.79 Q0.12,22.43 -0.68,24.02 C-2.58,27.79 -4.34,31.27 -6.51,33.74 C-9.99,37.71 -16.5,40.95 -20.77,35.76 L-20.79,35.86 ZM19.23,18.02 C21.52,20.35 23.65,22.14 25.75,23.51 C28.3,25.15 31.24,26.1 32.61,23.24 C34.01,20.37 31.43,18.93 28.72,18.4 C26.06,17.89 22.89,17.87 19.19,18 L19.23,18.02 Z" fill-rule="evenodd" style="fill:#EF5350;" />
		</g>
	</g>
</svg>